<svg width="200" height="36" viewBox="0 0 200 36" fill="none" xmlns="http://www.w3.org/2000/svg">
<path d="M0.867547 0.126457C0.337593 0.336851 -0.0389529 1.09427 0.0307778 1.78155C0.114455 2.51092 0.42127 2.88963 1.13252 3.08599C2.26216 3.38054 3.19655 2.65118 3.19655 1.47298C3.19655 0.701533 2.47135 -0.0138049 1.71826 0.000221491C1.41145 0.000221491 1.0349 0.0563264 0.867547 0.126457Z" fill="#003554"/>
<path d="M4.73053 0.547493C4.35399 0.926201 4.35399 1.93609 4.71659 2.38493C4.98156 2.72156 4.99551 2.72156 8.87254 2.79169L12.7496 2.86182L13.5584 3.26858C14.6184 3.81561 15.4133 4.62913 15.9293 5.72317C16.7242 7.40632 16.4453 9.77675 15.3436 10.8427C14.9531 11.2215 14.9252 11.2215 14.0884 11.0672C13.6142 10.983 12.0523 10.8989 10.6158 10.8989C8.4681 10.8848 7.93815 10.9129 7.58949 11.1092C6.87824 11.488 0.588527 17.94 0.309604 18.5712C0.100411 19.0621 0.0585729 19.7354 0.0167345 23.7749C-0.0390501 29.0067 0.00278834 29.3433 0.811665 30.1569C1.63449 30.9984 1.88552 31.0265 8.14734 30.9423C13.3632 30.8862 13.7955 30.8582 14.7439 30.5777C15.999 30.213 16.9474 29.7361 18.0631 28.9366C21.3683 26.5802 22.7769 21.8954 21.4659 17.6314C20.9499 15.9483 19.5553 13.9706 18.0631 12.8064L17.5331 12.3856L17.8818 11.8526C18.5651 10.8427 18.858 9.84688 18.9277 8.24789C18.9974 6.56475 18.8161 5.72317 18.0909 4.27847C17.5192 3.14235 16.0827 1.7257 14.9112 1.13659C13.3074 0.351126 12.7356 0.266968 8.67729 0.266968C5.19076 0.266968 4.99551 0.280994 4.73053 0.547493ZM13.6979 13.676C15.7898 14.209 17.5749 15.6397 18.4535 17.4491C19.109 18.8237 19.2903 19.7354 19.2066 21.4887C19.1509 22.8632 19.0951 23.0456 18.5791 24.1396C18.2722 24.7708 17.7562 25.5983 17.4494 25.949C16.7242 26.7765 15.3854 27.6462 14.2139 28.0529C13.3493 28.3615 13.0982 28.3896 8.31469 28.4316C3.92166 28.4737 3.28013 28.4597 2.97332 28.2633L2.63861 28.0389V24.4061V20.7733L4.98156 20.7172C7.11532 20.6751 7.35241 20.6471 7.86842 20.3385C8.17523 20.1702 8.57967 19.8336 8.76097 19.5951C9.36066 18.8517 9.45828 18.3047 9.47222 15.808C9.47222 13.7041 9.50012 13.4657 9.72326 13.4095C10.1974 13.2693 12.8611 13.4516 13.6979 13.676ZM7.10138 16.313C7.10138 18.1785 7.03165 18.2486 5.21865 18.1925L3.82403 18.1504L5.34416 16.5654C6.19488 15.7098 6.92008 14.9945 6.98981 14.9945C7.04559 14.9945 7.10138 15.5836 7.10138 16.313Z" fill="#003554"/>
<path d="M156.507 8.49998C156.27 8.85064 156.256 9.56598 156.214 18.5708C156.186 23.8868 156.214 28.5154 156.256 28.852C156.368 29.6656 156.73 30.0022 157.456 30.0022C158.195 30.0022 158.488 29.8199 158.683 29.2869C158.864 28.7398 158.892 10.0709 158.711 9.11714C158.557 8.3457 158.278 8.12127 157.414 8.12127C156.842 8.12127 156.716 8.17738 156.507 8.49998Z" fill="#003554"/>
<path d="M64.183 9.38358C63.1789 9.9867 63.2347 9.45371 63.2068 19.0617C63.1929 23.8025 63.2347 28.0805 63.2905 28.5715C63.416 29.6655 63.7507 30.0723 64.5596 30.0723C64.9501 30.0723 65.2151 29.9741 65.4242 29.7497C65.745 29.4411 65.745 29.385 65.7868 25.1631L65.8287 20.8851H70.7517C75.1168 20.8851 75.7026 20.857 75.7723 20.6607C75.9257 20.2679 75.856 18.8373 75.6886 18.6689C75.5631 18.5427 74.2522 18.5006 70.668 18.5006H65.8147V15.0642V11.6278L66.2052 11.6137C66.4144 11.6137 68.7713 11.5857 71.449 11.5436C74.559 11.5015 76.3859 11.4314 76.4975 11.3332C76.7485 11.1369 76.874 10.4496 76.7625 9.94462C76.5812 9.11708 76.4556 9.10305 70.2496 9.10305C64.9222 9.10305 64.6014 9.11708 64.183 9.38358Z" fill="#003554"/>
<path d="M140.062 9.35598C139.183 9.93106 139.211 9.49625 139.169 19.8196C139.141 29.0488 139.141 29.2312 139.42 29.5818C139.573 29.7782 139.852 29.9745 140.062 30.0166C140.564 30.1148 141.317 29.8764 141.47 29.5818C141.526 29.4556 141.61 27.4498 141.651 25.1355L141.721 20.9276L146.602 20.8575L151.483 20.7874V19.6653V18.5432L146.602 18.473L141.721 18.4029V14.9665V11.5301L146.881 11.502C151.944 11.4599 152.041 11.4599 152.292 11.1654C152.655 10.7165 152.599 9.8469 152.181 9.42612L151.846 9.07546H146.156C140.759 9.07546 140.438 9.08949 140.062 9.35598Z" fill="#003554"/>
<path d="M84.503 15.2887C82.4529 15.5131 80.6817 16.6071 79.4405 18.4165C77.9343 20.6467 77.6973 23.7325 78.8548 26.1871C80.2912 29.2448 83.9033 30.8999 87.2783 30.0583C88.5892 29.7217 89.3841 29.2869 90.444 28.291C92.0339 26.7902 92.8567 24.5881 92.6894 22.2317C92.4941 19.3984 91.0298 17.1401 88.6171 15.9479C88.2406 15.7515 87.7385 15.5412 87.5014 15.4851C86.7762 15.3027 85.2979 15.2045 84.503 15.2887ZM87.3201 18.0378C88.7845 18.683 89.7467 20.0295 90.0814 21.895C90.6532 25.0089 88.4358 27.8983 85.4932 27.8983C83.0944 27.8983 81.3233 26.3834 80.8073 23.8868C79.9426 19.749 83.6523 16.4248 87.3201 18.0378Z" fill="#003554"/>
<path d="M169.086 15.2186C167.217 15.443 165.669 16.1584 164.497 17.3085C163.019 18.7672 162.294 20.5766 162.308 22.7507C162.308 25.079 162.991 26.7482 164.497 28.1788C168.751 32.1763 175.585 30.1425 176.756 24.518C177.16 22.6104 176.965 21.0114 176.128 19.2722C175.445 17.8415 174.957 17.2664 173.785 16.495C172.377 15.5412 170.536 15.0503 169.086 15.2186ZM171.735 18.1501C173.144 18.9776 173.981 20.1558 174.315 21.7548C174.678 23.5782 173.925 25.7383 172.544 26.8744C169.95 28.9783 165.99 27.6178 165.027 24.2795C164.693 23.1574 164.804 21.4743 165.278 20.4364C165.697 19.5247 166.631 18.5148 167.468 18.094C168.681 17.4628 170.62 17.4908 171.735 18.1501Z" fill="#003554"/>
<path d="M28.6344 15.5272C26.7796 16.1864 25.3013 17.5189 24.4645 19.2582C23.809 20.6327 23.6556 21.5024 23.7254 23.2557C23.8369 25.6401 24.6319 27.4074 26.1799 28.7119C27.5885 29.9041 28.9133 30.3529 30.7961 30.2547C31.8281 30.2127 32.1767 30.1285 32.9298 29.7498C33.4319 29.5114 34.1153 29.0485 34.4639 28.7399C34.8126 28.4454 35.1333 28.235 35.1891 28.277C35.2309 28.3191 35.2728 28.6978 35.2728 29.1186C35.2728 29.9882 35.4401 30.1005 36.5279 30.0584C36.8766 30.0303 37.2671 30.0163 37.4065 30.0163C37.6297 30.0023 37.6436 29.5675 37.6436 22.9331V15.8498L37.3368 15.6394C36.9463 15.3589 35.6493 15.3449 35.4262 15.5973C35.2449 15.8218 35.1612 16.2566 35.1333 17.028L35.1194 17.5891L34.7149 17.1402C34.2129 16.5792 33.2645 15.8779 32.623 15.5973C31.842 15.2467 29.513 15.2046 28.6344 15.5272ZM32.623 17.9958C34.1153 18.7813 34.8683 19.8894 35.1612 21.7689C35.468 23.7606 34.966 25.57 33.8084 26.6921C32.888 27.6038 31.8839 27.9544 30.4893 27.8563C29.2202 27.7721 28.5507 27.4355 27.5885 26.3975C26.6541 25.3876 26.2915 24.3778 26.2915 22.7086C26.2915 21.4603 26.3194 21.306 26.8075 20.2961C27.3653 19.1319 28.0347 18.4587 29.1504 17.9397C29.9314 17.561 31.856 17.6031 32.623 17.9958Z" fill="#003554"/>
<path d="M100.917 15.4712C100.22 15.7236 99.3411 16.3408 98.9367 16.8738L98.6159 17.2946L98.5183 16.7335C98.3649 15.8218 98.3091 15.7377 97.8768 15.5553C97.3329 15.3169 96.6774 15.5132 96.3148 16.0042C96.0498 16.3548 96.0359 16.6494 95.9801 22.2458C95.9383 28.5857 95.9662 29.3291 96.3706 29.7358C96.6774 30.0444 97.7094 30.1005 98.086 29.82C98.4765 29.5255 98.5462 28.8241 98.5602 24.8267C98.5741 20.5206 98.6578 19.9736 99.4806 18.8936C99.7595 18.5289 100.234 18.1221 100.582 17.9538C101.391 17.5611 102.646 17.5611 103.553 17.9398C103.915 18.1081 104.376 18.2203 104.571 18.1923C104.975 18.1502 105.882 17.0561 105.812 16.6914C105.784 16.5652 105.408 16.2146 104.947 15.906C104.153 15.359 104.111 15.3449 102.8 15.3029C101.907 15.2888 101.266 15.3449 100.917 15.4712Z" fill="#003554"/>
<path d="M113.371 15.4571C112.576 15.6815 111.907 16.0883 111.293 16.7335C111.028 17.014 110.75 17.2384 110.694 17.2384C110.638 17.2384 110.582 16.9719 110.582 16.6353C110.582 15.7516 110.345 15.5132 109.494 15.4992C108.923 15.4851 108.713 15.5553 108.462 15.8077L108.142 16.1303V22.7647C108.142 28.9784 108.156 29.4272 108.393 29.6937C108.727 30.0584 109.425 30.1566 109.996 29.9181C110.234 29.8199 110.457 29.7218 110.471 29.6937C110.485 29.6656 110.526 27.6599 110.582 25.2334C110.638 22.4982 110.736 20.6187 110.847 20.2961C111.14 19.3844 111.851 18.4867 112.646 18.0379C113.246 17.7013 113.539 17.6311 114.278 17.6311C114.822 17.6311 115.366 17.7293 115.673 17.8836C116.44 18.2483 117.234 19.2442 117.402 20.0577C117.499 20.4644 117.555 22.5263 117.555 25.023C117.555 29.2449 117.555 29.2869 117.876 29.6516C118.197 30.0163 118.838 30.1425 119.452 29.9462C120.01 29.7779 120.066 29.329 120.066 25.4718C120.066 21.7689 120.191 20.3382 120.554 19.6088C120.819 19.1039 121.683 18.2623 122.227 17.9678C122.827 17.6452 123.929 17.533 124.724 17.6872C125.574 17.8696 126.648 18.8514 126.913 19.693C127.025 20.0717 127.108 21.811 127.178 24.8827C127.234 27.4214 127.276 29.5254 127.29 29.5394C127.68 29.9462 127.834 30.0023 128.433 30.0023C129.005 30.0023 129.158 29.9462 129.409 29.6236C129.716 29.2308 129.716 29.1747 129.661 24.3918C129.605 19.8613 129.577 19.4966 129.298 18.7392C128.782 17.3085 127.987 16.4109 126.62 15.6815C126.062 15.3869 125.811 15.3449 124.389 15.3449C122.855 15.3449 122.743 15.3589 121.851 15.8077C121.237 16.1163 120.679 16.5231 120.205 17.0561C119.508 17.8135 119.466 17.8415 119.285 17.5891C118.824 16.9298 117.848 16.0602 117.207 15.7236C116.635 15.429 116.286 15.3589 115.254 15.3168C114.515 15.3028 113.734 15.3589 113.371 15.4571Z" fill="#003554"/>
<path d="M41.1718 15.5132C40.8371 15.5833 40.4326 16.0462 40.4326 16.3828C40.4326 16.5792 40.7673 17.3787 42.664 21.797C43.2637 23.1856 44.0168 24.9529 44.3375 25.7243C44.6583 26.4958 45.0767 27.4636 45.258 27.8703C45.4393 28.2771 45.5927 28.6838 45.5927 28.782C45.5927 28.8802 45.0348 30.1566 44.3654 31.6153C42.7895 35.0097 42.7477 35.1499 43.0127 35.5567C43.2916 36.0055 44.0865 36.1318 44.7001 35.8513C45.1604 35.6268 45.4532 35.1079 46.7781 32.1764C46.9594 31.7836 47.7683 29.9883 48.5911 28.1789C52.2032 20.212 53.6815 16.8036 53.6815 16.4389C53.6815 15.6815 52.8447 15.2748 51.9521 15.5833C51.3385 15.7937 51.478 15.4992 48.8282 21.7689C47.9217 23.9149 47.1268 25.6682 47.057 25.6682C47.0013 25.6682 46.4155 24.3918 45.774 22.8209C43.5287 17.3927 42.915 15.9901 42.6779 15.7797C42.4269 15.5553 41.6459 15.415 41.1718 15.5132Z" fill="#003554"/>
<path d="M179.323 15.6255C178.89 15.8639 178.737 16.3268 178.904 16.9018C179.141 17.7154 182.67 27.0428 183.353 28.6558C183.841 29.82 184.008 30.0023 184.664 30.0023C185.389 30.0023 185.696 29.82 186.003 29.1888C186.156 28.9083 186.909 26.7623 187.704 24.4199C188.499 22.0775 189.182 20.2261 189.238 20.2822C189.294 20.3383 189.74 21.5586 190.214 22.9892C191.846 27.8143 192.571 29.6657 192.92 29.8901C193.004 29.9462 193.324 30.0023 193.645 30.0023C194.649 30.0023 194.594 30.1286 197.955 21.236C198.833 18.9216 199.586 16.8317 199.642 16.6073C199.837 15.5834 198.457 15.0644 197.662 15.8499C197.411 16.1023 196.839 17.4909 195.723 20.4785C194.859 22.8209 194.05 24.995 193.91 25.3036C193.617 25.9908 193.854 26.5098 191.874 20.6889C191.037 18.2343 190.27 16.0743 190.159 15.892C189.88 15.4852 189.224 15.3449 188.722 15.5834C188.262 15.8078 188.039 16.3688 185.794 22.9892L184.803 25.8646L184.58 25.3737C184.469 25.1072 183.646 22.9051 182.767 20.4785C181.889 18.052 181.052 15.9621 180.912 15.8078C180.55 15.4571 179.769 15.359 179.323 15.6255Z" fill="#003554"/>
</svg>
