<svg width="46" height="42" viewBox="0 0 46 42" fill="none" xmlns="http://www.w3.org/2000/svg">
<path d="M11.2508 3.14686C10.6348 3.39139 10.1972 4.27171 10.2782 5.07051C10.3755 5.91823 10.7321 6.35838 11.5587 6.58662C12.8717 6.92896 13.9577 6.08125 13.9577 4.71187C13.9577 3.81525 13.1148 2.98384 12.2395 3.00014C11.8829 3.00014 11.4453 3.06535 11.2508 3.14686Z" fill="#003554"/>
<path d="M15.7413 3.63626C15.3036 4.07642 15.3036 5.25018 15.7251 5.77185C16.033 6.1631 16.0493 6.1631 20.5554 6.24461L25.0615 6.32612L26.0016 6.79888C27.2335 7.43467 28.1574 8.38019 28.7572 9.65176C29.6811 11.608 29.3569 14.3631 28.0764 15.6021C27.6225 16.0422 27.5901 16.0422 26.6176 15.8629C26.0665 15.7651 24.251 15.6673 22.5815 15.6673C20.0853 15.651 19.4694 15.6836 19.0641 15.9118C18.2375 16.352 10.9272 23.8509 10.603 24.5845C10.3599 25.1551 10.3112 25.9376 10.2626 30.6327C10.1978 36.7134 10.2464 37.1046 11.1865 38.0501C12.1429 39.0283 12.4346 39.0609 19.7125 38.9631C25.7747 38.8978 26.2772 38.8652 27.3794 38.5392C28.8382 38.1153 29.9404 37.5611 31.2372 36.6318C35.0787 33.8931 36.7158 28.4482 35.1922 23.4923C34.5924 21.536 32.9715 19.2374 31.2372 17.8844L30.6212 17.3953L31.0264 16.7758C31.8207 15.6021 32.1611 14.4446 32.2421 12.5862C32.3232 10.6299 32.1124 9.65176 31.2696 7.97264C30.605 6.65216 28.9355 5.00565 27.5739 4.32095C25.7099 3.40803 25.0453 3.31022 20.3284 3.31022C16.2762 3.31022 16.0493 3.32652 15.7413 3.63626ZM26.1637 18.8951C28.5951 19.5146 30.6698 21.1774 31.691 23.2804C32.4528 24.878 32.6636 25.9376 32.5663 27.9754C32.5015 29.573 32.4366 29.7849 31.8369 31.0565C31.4803 31.7901 30.8806 32.7519 30.524 33.1595C29.6811 34.1213 28.125 35.132 26.7634 35.6048C25.7585 35.9635 25.4667 35.9961 19.907 36.045C14.8012 36.0939 14.0555 36.0776 13.6989 35.8493L13.3099 35.5885V31.3662V27.144L16.033 27.0788C18.513 27.0299 18.7886 26.9973 19.3883 26.6386C19.7449 26.443 20.215 26.0517 20.4257 25.7746C21.1227 24.9106 21.2362 24.2748 21.2524 21.373C21.2524 18.9277 21.2848 18.6506 21.5441 18.5854C22.0952 18.4223 25.1912 18.6343 26.1637 18.8951ZM18.4968 21.9599C18.4968 24.1281 18.4158 24.2096 16.3086 24.1444L14.6877 24.0955L16.4545 22.2533C17.4432 21.2589 18.2861 20.4275 18.3671 20.4275C18.432 20.4275 18.4968 21.1122 18.4968 21.9599Z" fill="#003554"/>
</svg>
