<svg width="203" height="35" viewBox="0 0 203 35" fill="none" xmlns="http://www.w3.org/2000/svg">
<path d="M5.03126 0.156506C4.53662 0.410971 4.32463 0.879721 4.31049 1.6699C4.31049 2.25919 4.38116 2.44669 4.72034 2.80829L5.13019 3.25026L8.93191 3.31722C12.663 3.38419 12.7336 3.38419 13.5251 3.74579C14.5426 4.18776 15.4612 4.99133 15.8994 5.82169C16.1679 6.31722 16.2668 6.71901 16.2951 7.62972C16.3516 8.66097 16.3092 8.88865 15.9842 9.55829L15.6167 10.3083L15.0938 10.2279C14.797 10.1744 13.1717 10.094 11.4758 10.0538C7.5469 9.97347 7.68822 9.9199 5.63897 11.9288C2.02099 15.4645 0.395717 17.1922 0.197859 17.7145C0.0423983 18.1297 0 19.2547 0 22.8038C0 25.3083 0.056531 27.5851 0.113062 27.8663C0.25439 28.4824 0.91863 29.219 1.6818 29.6074C2.24711 29.902 2.36017 29.902 8.26767 29.902C14.1186 29.902 14.3024 29.8887 15.4047 29.594C17.7931 28.9378 19.8 27.5851 21.1285 25.7235C22.4146 23.9154 22.9657 22.2547 22.9657 20.1387C22.9657 17.2592 21.9199 14.7949 19.9131 12.8797C19.164 12.1833 18.9379 11.8753 19.0227 11.7413C19.3195 11.3128 19.8424 9.43776 19.9413 8.52704C20.2522 5.13865 17.9627 1.6699 14.5709 0.410971L13.5675 0.0493641L9.46895 0.00918579C6.21842 -0.0175991 5.29979 0.00918388 5.03126 0.156506ZM13.5816 13.4288C16.9169 14.0315 19.1075 16.4154 19.3902 19.7235C19.5739 21.9333 18.3726 24.1967 16.3375 25.4958C14.5991 26.6074 14.2458 26.661 8.80471 26.7145C5.54004 26.7547 3.94304 26.7279 3.74518 26.6208C3.47666 26.4869 3.46253 26.3529 3.46253 23.3395V20.1922L3.78758 20.1253C3.95717 20.0985 5.003 20.0449 6.10535 20.0315C8.06981 19.9913 8.11221 19.9913 8.71991 19.5895C9.08737 19.3351 9.48308 18.9065 9.72334 18.4779C10.1049 17.8083 10.1332 17.661 10.1897 15.6654C10.2321 14.5137 10.2887 13.4824 10.3169 13.3887C10.4017 13.161 12.2107 13.1744 13.5816 13.4288ZM6.6848 16.2681C6.6424 16.7503 6.61413 16.777 6.11949 16.8172C5.8227 16.844 5.58244 16.8172 5.58244 16.7637C5.58244 16.6163 6.45867 15.7726 6.61413 15.7726C6.67066 15.7726 6.71306 16.0003 6.6848 16.2681Z" fill="#ABDDF6"/>
<path d="M1.35697 0.277054C0.311148 0.625268 0.0426258 2.08509 0.918857 2.8083C1.82335 3.58509 3.46275 3.12973 3.68888 2.04491C3.81607 1.38866 3.51929 0.665447 2.98224 0.357411C2.48759 0.062768 2.04948 0.0493753 1.35697 0.277054Z" fill="white"/>
<path d="M159.178 7.61633C158.937 7.73687 158.923 8.39312 158.923 18.1833C158.923 30.2101 158.725 28.8976 160.577 28.8976C162.442 28.8976 162.244 30.1565 162.216 18.1565C162.188 8.56723 162.16 7.79044 161.933 7.64312C161.651 7.42883 159.531 7.41544 159.178 7.61633Z" fill="white"/>
<path d="M66.0423 8.67437C64.6573 8.75473 64.3323 8.94223 64.092 9.73241C64.0072 10.0271 63.9507 13.6431 63.9507 19.2547C63.9507 27.2235 63.9789 28.3351 64.1768 28.6029C64.3747 28.8708 64.5019 28.8976 65.7031 28.8976C66.7631 28.8976 67.0599 28.8574 67.2154 28.6699C67.3708 28.4958 67.4273 27.5717 67.4556 24.277L67.498 20.0985L69.7169 20.0181C70.9323 19.9645 73.1794 19.9244 74.7057 19.9244C76.656 19.9244 77.504 19.8842 77.6312 19.7637C77.8291 19.5762 77.8573 17.5404 77.6595 17.2458C77.5464 17.0717 76.7832 17.0449 72.501 17.0047L67.4839 16.9646V14.2994V11.6208H68.8689C73.6458 11.594 78.0269 11.4467 78.1117 11.3128C78.2954 11.0315 78.2389 8.98241 78.0552 8.83509C77.8432 8.68777 67.9927 8.54044 66.0423 8.67437Z" fill="white"/>
<path d="M143.589 8.6342C143.363 8.66098 143.052 8.79491 142.896 8.91545C142.246 9.46455 142.246 9.46455 142.246 19.1878C142.246 29.9958 142.034 28.8976 144.154 28.8976C145.327 28.8976 145.511 28.8708 145.638 28.6431C145.723 28.4824 145.779 26.8351 145.779 24.2369V20.0985L148.648 20.0181C150.217 19.9646 152.478 19.9244 153.665 19.9244H155.814L155.969 19.5494C156.153 19.094 156.068 17.4333 155.856 17.2324C155.743 17.1253 154.16 17.0583 150.74 17.0047L145.779 16.9378V14.2994V11.661L146.429 11.5672C146.797 11.5271 149.143 11.4869 151.659 11.4869C156.026 11.4869 156.238 11.4735 156.379 11.2324C156.577 10.8574 156.563 9.16991 156.336 8.90205C156.181 8.68777 155.616 8.66098 150.09 8.6208C146.74 8.58062 143.829 8.59402 143.589 8.6342Z" fill="white"/>
<path d="M84.8671 14.5806C83.6093 14.7815 82.4645 15.3708 81.3621 16.4021C79.539 18.1029 78.8324 20.219 79.214 22.8708C79.7793 26.8485 83.5527 29.5003 87.8067 28.911C89.0928 28.7235 90.6756 28.0672 91.6508 27.2904C94.1806 25.2815 94.8589 21.1565 93.1913 18.0092C92.3292 16.4021 90.3223 14.9556 88.4285 14.5806C87.5664 14.4065 85.9836 14.4065 84.8671 14.5806ZM88.4144 17.7949C89.3048 18.1699 90.1245 19.0137 90.5202 20.0047C90.93 21.0628 90.8735 22.8842 90.3789 23.8083C89.4744 25.536 87.736 26.2592 85.5313 25.8172C83.4397 25.4154 82.0547 23.1922 82.4504 20.8753C82.6058 19.9244 82.8744 19.4288 83.5527 18.7056C84.754 17.4467 86.6761 17.0851 88.4144 17.7949Z" fill="white"/>
<path d="M115.253 14.6342C114.433 14.8619 113.444 15.3574 113.133 15.6922C112.864 16.0137 112.567 15.9467 112.567 15.5583C112.567 14.8083 112.384 14.7012 111.041 14.7012C110.363 14.7012 109.727 14.7547 109.614 14.8217C109.345 14.9824 109.345 28.6163 109.628 28.777C109.727 28.844 110.32 28.8976 110.956 28.8976C112.765 28.8976 112.624 29.2726 112.709 24.1163C112.794 19.2815 112.765 19.3887 113.726 18.4645C114.617 17.594 116.058 17.2458 117.161 17.6476C117.839 17.8887 118.489 18.5851 118.715 19.3083C118.885 19.8306 118.927 20.8619 118.927 24.1699C118.927 29.1788 118.828 28.8976 120.595 28.8976C122.376 28.8976 122.234 29.2726 122.319 24.0494L122.39 19.5628L122.814 18.9065C123.153 18.3842 123.436 18.1565 124.156 17.8083C124.962 17.4333 125.16 17.3797 125.767 17.4601C126.757 17.5806 127.322 17.8351 127.803 18.3976C128.495 19.1878 128.566 19.7369 128.636 24.3306C128.665 27.1431 128.735 28.6029 128.834 28.7235C129.089 29.0047 131.548 28.9645 131.802 28.6699C131.958 28.4958 132 27.5583 131.986 23.7547C131.958 19.0806 131.958 19.0538 131.59 17.9824C130.785 15.6119 129.018 14.4333 126.276 14.4333C124.58 14.4333 123.365 14.8753 122.234 15.9199C121.74 16.3887 121.457 16.5628 121.287 16.4958C121.16 16.4556 121.047 16.3619 121.047 16.2949C121.047 16.0538 119.945 15.1833 119.224 14.8619C118.249 14.4333 116.412 14.3262 115.253 14.6342Z" fill="white"/>
<path d="M170.484 14.6476C167.954 15.2235 165.834 17.286 165.198 19.777C164.944 20.7681 164.958 22.6029 165.212 23.6476C166.357 28.2681 172.123 30.4244 176.631 27.9199C178.13 27.0895 179.515 25.2012 179.84 23.5538C180.052 22.4824 180.009 20.5404 179.755 19.6163C179.062 17.0717 176.843 15.0092 174.342 14.5672C173.296 14.3797 171.459 14.4199 170.484 14.6476ZM174.186 17.7949C177.649 19.2413 177.38 24.7726 173.819 25.7637C172.349 26.1654 170.498 25.7637 169.551 24.8395C168.675 23.969 168.166 22.2681 168.392 20.902C168.844 18.2101 171.614 16.7235 174.186 17.7949Z" fill="white"/>
<path d="M29.3679 14.7012C27.9264 15.0226 26.1739 16.2949 25.3118 17.6208C24.4638 18.9601 24.1953 19.911 24.1953 21.6654C24.1953 24.0762 24.8596 25.7369 26.3718 27.1565C27.3187 28.0404 28.2655 28.5494 29.481 28.8306C31.4737 29.2726 33.4099 28.8708 34.7242 27.719C35.1765 27.3306 35.4026 27.4244 35.4026 28.0271C35.4026 28.7637 35.6711 28.8976 37.0985 28.8976C38.0454 28.8976 38.3987 28.844 38.5683 28.6833C38.7662 28.4958 38.7945 27.6922 38.7945 21.7994C38.7945 15.9065 38.7662 15.1029 38.5683 14.9154C38.3987 14.7547 38.0596 14.7012 37.1268 14.7012C36.4484 14.7012 35.8124 14.7547 35.7135 14.8217C35.6005 14.8753 35.4874 15.1833 35.445 15.4913C35.4026 15.786 35.3037 16.0404 35.233 16.0404C35.1482 16.0404 34.8514 15.8663 34.5688 15.6654C33.4805 14.8753 32.4347 14.5672 30.9649 14.5806C30.3431 14.594 29.6223 14.6342 29.3679 14.7012ZM33.212 18.0628C34.9927 18.8529 35.9255 21.3306 35.1906 23.2592C34.0034 26.3396 29.7778 26.6744 28.1384 23.8083C27.6578 22.9646 27.5024 21.6521 27.7709 20.6208C28.3645 18.2369 30.9225 17.0449 33.212 18.0628Z" fill="white"/>
<path d="M102.519 14.7547C101.883 14.9154 101.191 15.3038 100.837 15.7056C100.526 16.0538 100.272 15.9467 100.272 15.4645C100.272 15.2235 100.201 14.9556 100.102 14.8619C99.8762 14.6476 97.4171 14.6476 97.1909 14.8619C96.9507 15.0895 96.9507 28.5092 97.1909 28.7369C97.4171 28.9512 99.8762 28.9512 100.102 28.7369C100.229 28.6163 100.272 27.4913 100.272 24.5181C100.272 20.7145 100.286 20.4199 100.569 19.6967C101.36 17.6878 103.395 17.0047 105.388 18.0895L105.911 18.3842L106.42 17.9154C106.702 17.661 107.126 17.219 107.367 16.9512C107.776 16.4556 107.776 16.4422 107.55 16.0806C106.759 14.8351 104.498 14.2458 102.519 14.7547Z" fill="white"/>
<path d="M40.8156 14.7949C40.7166 14.8217 40.6318 14.969 40.6318 15.1163C40.6318 15.2503 41.5222 17.3395 42.6246 19.7503C43.7128 22.1744 44.9282 24.8395 45.3098 25.6967L46.0164 27.2503L45.0978 29.1387C44.589 30.1833 43.8258 31.6967 43.3877 32.5003C42.9637 33.3172 42.6104 34.1074 42.6104 34.2681C42.6104 34.536 42.667 34.5494 44.2357 34.4958C45.4511 34.469 45.9034 34.402 46.073 34.2547C46.186 34.1342 46.9916 32.6342 47.8537 30.9065C49.5213 27.5449 49.592 27.3976 50.5672 25.3485C50.9205 24.6119 51.7826 22.8038 52.5034 21.3306C54.8353 16.4958 55.3864 15.2235 55.231 14.9824C55.1179 14.8217 54.807 14.7547 53.7753 14.7279C52.2348 14.6878 51.938 14.8083 51.613 15.6654C51.4999 15.9869 50.7792 17.5672 50.0301 19.1878C49.2811 20.8083 48.5744 22.3887 48.4473 22.6967C48.2353 23.286 47.9243 23.6342 47.783 23.4333C47.7406 23.3663 47.1329 22.0003 46.4263 20.3797C44.6173 16.2413 44.3205 15.5985 44.0096 15.1297L43.741 14.7012L42.3702 14.7145C41.607 14.7145 40.9004 14.7547 40.8156 14.7949Z" fill="white"/>
<path d="M180.871 14.7949C180.447 14.9422 180.489 15.0494 184.885 25.4556C185.718 27.4244 186.34 28.6833 186.496 28.7637C186.793 28.9244 187.895 28.9378 188.135 28.7904C188.319 28.6833 188.828 27.5047 190.043 24.344C191.131 21.5315 191.541 20.6476 191.697 20.8083C191.767 20.8753 191.965 21.2904 192.135 21.7324C192.318 22.1744 192.742 23.2324 193.082 24.0762C193.421 24.9199 193.916 26.1654 194.184 26.8485C194.891 28.6699 195.018 28.8574 195.597 28.9512C195.88 29.0047 196.318 28.9779 196.572 28.8976C197.152 28.7235 197.025 28.9645 199.625 22.536C200.063 21.4244 200.925 19.3217 201.533 17.8485C202.31 15.9199 202.579 15.1163 202.48 14.969C202.381 14.8217 202.028 14.7547 200.996 14.7279C199.371 14.6878 199.526 14.5404 198.551 17.0449C196.686 21.8663 196.12 23.2056 195.965 23.2056C195.866 23.2056 195.47 22.3887 195.089 21.3976C194.41 19.6833 193.704 17.8887 192.884 15.8663C192.474 14.8485 192.234 14.661 191.456 14.7279C190.99 14.7681 190.905 14.8351 190.608 15.411C190.354 15.9065 188.884 19.6699 187.527 23.2592C187.386 23.661 187.075 23.0181 185.577 19.1878C184.743 17.0449 183.966 15.1699 183.853 14.9958C183.669 14.7279 183.542 14.7012 182.341 14.7145C181.634 14.7145 180.956 14.7547 180.871 14.7949Z" fill="white"/>
</svg>
